<svg width="50" height="50" viewBox="0 0 50 50" fill="none" xmlns="http://www.w3.org/2000/svg">
<g clip-path="url(#clip0_407_1236)">
<path d="M25 50C38.8071 50 50 38.8071 50 25C50 11.1929 38.8071 0 25 0C11.1929 0 0 11.1929 0 25C0 38.8071 11.1929 50 25 50Z" fill="#F0F0F0"/>
</g>
<path d="M37.975 25.8501C37.9813 25.8003 37.9813 25.7499 37.975 25.7001C37.9875 25.4626 38 25.2376 38 25.0001C38.0044 22.038 36.9892 19.1646 35.125 16.8626C35.0816 16.7807 35.0221 16.7084 34.95 16.6501C33.5719 15.0027 31.8067 13.7229 29.8125 12.9251L29.675 12.8751C26.6676 11.7083 23.3325 11.7083 20.325 12.8751L20.1875 12.9251C18.1933 13.7229 16.4282 15.0027 15.05 16.6501C14.978 16.7084 14.9184 16.7807 14.875 16.8626C13.0108 19.1646 11.9956 22.038 12 25.0001C12 25.2376 12.0125 25.4626 12.025 25.7001C12.0187 25.7499 12.0187 25.8003 12.025 25.8501C12.1692 27.998 12.8434 30.0766 13.9875 31.9001C14.026 31.9754 14.072 32.0467 14.125 32.1126C15.882 34.7942 18.5654 36.7345 21.6625 37.5626H21.7C23.8635 38.1292 26.1365 38.1292 28.3 37.5626H28.3375C31.4346 36.7345 34.118 34.7942 35.875 32.1126C35.928 32.0467 35.9741 31.9754 36.0125 31.9001C37.1566 30.0766 37.8309 27.998 37.975 25.8501V25.8501ZM17.5625 23.6376L19.2125 24.1751L20.8 29.0751L19.7875 30.4751H15.4625C14.6986 29.1607 14.2215 27.6995 14.0625 26.1876L17.5625 23.6376ZM32.4375 23.6376L35.9375 26.1876C35.7785 27.6995 35.3014 29.1607 34.5375 30.4751H30.2125L29.2 29.0751L30.7875 24.1751L32.4375 23.6376ZM33.15 17.6251L31.8125 21.7376L30.1625 22.2751L26 19.2376V17.5126L29.5 14.9626C30.8896 15.5848 32.1331 16.4919 33.15 17.6251V17.6251ZM20.5 14.9626L24 17.5126V19.2376L19.8375 22.2751L18.1875 21.7376L16.85 17.6251C17.8669 16.4919 19.1104 15.5848 20.5 14.9626V14.9626ZM22.75 35.7626L21.4125 31.6501L22.425 30.2501H27.575L28.5875 31.6501L27.25 35.7626C25.7667 36.0793 24.2333 36.0793 22.75 35.7626V35.7626Z" fill="#1D1C19"/>
<defs>
<clipPath id="clip0_407_1236">
<rect width="50" height="50" fill="white"/>
</clipPath>
</defs>
</svg>
